<?xml version="1.0" ?>
<!-- Uploaded to: SVG Repo, www.svgrepo.com, Generator: SVG Repo Mixer Tools -->
<svg width="800px" height="800px" viewBox="0 0 512 512" version="1.1" xml:space="preserve" xmlns="http://www.w3.org/2000/svg" xmlns:xlink="http://www.w3.org/1999/xlink">
<style type="text/css">
	.st0{display:none;}
	.st1{fill:#FFE2D2;}
	.st2{fill:#FFDE83;}
	.st3{fill:#F57070;}
	.st4{fill:#DBDBEF;}
	.st5{fill:#BCE2FF;}
	.st6{fill:#48446D;}
	.st7{fill:#6E78FF;}
	.st8{fill:#FFBE83;}
	.st9{fill:#F5949E;}
	.st10{fill:#D0FF67;}
	.st11{fill:#C69C6D;}
	.st12{fill:#C5BDD3;}
	.st13{fill:#FFE2B8;}
	.st14{fill:#F54670;}
</style>
<g class="st0" id="Layer_1"/>
<g id="Layer_2">
<g>
<path class="st10" d="M331.14,255.75c0,2.18-0.49,4.35-1.47,6.4c-2.08,4.34-5.99,7.31-10.73,8.15l-43.1,7.66l29.67-32.19    c2.84-3.08,6.7-4.76,10.8-4.76c0.61,0,1.23,0.03,1.85,0.11c4.77,0.59,8.84,3.34,11.15,7.56    C330.53,250.91,331.14,253.33,331.14,255.75z"/>
<path class="st3" d="M338.94,149.55c-0.01-0.01-0.01-0.01-0.02-0.01c-3.47-1.73-4.87-5.93-3.15-9.39    c6.45-12.93,9.64-25.28,9.48-36.7c-0.18-12.53-5.23-24.24-14.21-32.97c-8.99-8.74-20.83-13.48-33.36-13.27    c-14.43,0.2-27.77,6.93-36.6,18.46c-1.3,1.71-3.31,2.72-5.46,2.75c-2.13,0.01-4.19-0.93-5.54-2.6    c-9.12-11.27-22.65-17.64-37.09-17.42c-12.53,0.17-24.24,5.22-32.97,14.2s-13.44,20.83-13.27,33.36    c0.39,27.75,20.18,59.27,58.82,93.68c0.14,0.11,0.27,0.21,0.39,0.32c0.04,0.03,0.07,0.06,0.11,0.09c0.32,0.29,0.66,0.55,1,0.82    l0.98,0.77c0.6,0.48,1.17,0.93,1.7,1.3c0.58,0.41,1.18,0.79,1.78,1.17c0.84,0.55,1.55,0.99,2.23,1.38    c0.58,0.33,1.15,0.63,1.74,0.92c0.88,0.45,1.65,0.82,2.43,1.16c0.64,0.29,1.22,0.53,1.81,0.76c0.74,0.29,1.6,0.6,2.6,0.92    c0.6,0.19,1.16,0.38,1.74,0.55c0.89,0.25,1.93,0.48,2.83,0.68l0.66,0.15c0.3,0.07,0.59,0.14,0.9,0.19c0.9,0.16,1.96,0.31,3.2,0.44    c0.05,0,0.09,0.01,0.14,0.01l0.58,0.08c0.19,0.03,0.38,0.06,0.58,0.07c1.09,0.09,2.06,0.15,2.95,0.17c0.46,0.01,1.01,0.01,1.55,0    h0.11c1.31-0.02,2.78-0.11,4.47-0.3c0.21-0.02,0.37-0.05,0.52-0.08c0.23-0.04,0.46-0.08,0.69-0.11c1.41-0.19,2.41-0.36,3.3-0.54    c0.17-0.04,0.42-0.1,0.67-0.17c0.31-0.08,0.62-0.16,0.93-0.23c1.05-0.26,1.96-0.51,2.76-0.76c0.59-0.18,1.13-0.38,1.67-0.57    c0.94-0.34,1.81-0.68,2.67-1.03c0.5-0.22,1.07-0.48,1.63-0.75c0.03-0.02,0.06-0.03,0.09-0.04c0.75-0.36,1.53-0.75,2.3-1.17    c0.59-0.33,1.18-0.65,1.76-1.01c0.03-0.02,0.06-0.04,0.09-0.06c0.75-0.44,1.5-0.95,2.07-1.34c0.03-0.02,0.06-0.04,0.09-0.06    c0.59-0.4,1.17-0.8,1.74-1.22c0.59-0.45,1.26-1.02,1.97-1.62l0.49-0.41c0.4-0.33,0.79-0.65,1.17-1c0.14-0.13,0.3-0.27,0.47-0.41    c9.66-9.1,18.23-18.16,25.45-26.88c2.27-2.74,6.17-3.31,9.1-1.46c0.14,0.09,0.28,0.18,0.42,0.28c0.12,0.07,0.23,0.16,0.34,0.25    c0.02,0.02,0.04,0.04,0.06,0.05c1.31-1.51,2.6-3.05,3.82-4.58c0.03-0.03,0.05-0.06,0.08-0.1c-0.02,0-0.05-0.01-0.07-0.02    c-0.14-0.06-0.27-0.12-0.4-0.19c-0.15-0.08-0.29-0.17-0.44-0.25c-0.12-0.07-0.25-0.13-0.37-0.21c-0.38-0.25-0.74-0.55-1.06-0.87    c-0.33-0.32-0.62-0.68-0.87-1.06c-0.26-0.38-0.47-0.79-0.65-1.21c-0.17-0.42-0.31-0.86-0.4-1.31c-0.09-0.45-0.13-0.91-0.13-1.37    c0-1.84,0.74-3.65,2.05-4.95c0.32-0.32,0.68-0.61,1.06-0.87c0.38-0.25,0.79-0.47,1.21-0.64c0.42-0.18,0.86-0.31,1.31-0.4    c0.9-0.18,1.83-0.18,2.73,0c0.45,0.09,0.89,0.22,1.31,0.4c0.43,0.17,0.83,0.39,1.21,0.64c0.3,0.2,0.57,0.43,0.83,0.67    c0.08,0.06,0.16,0.13,0.23,0.2c0.05,0.05,0.1,0.1,0.14,0.15c0.12,0.12,0.23,0.26,0.34,0.39c0.02-0.04,0.05-0.07,0.08-0.11    c1.14-1.72,2.26-3.49,3.32-5.25c0.02-0.03,0.03-0.06,0.05-0.09c-0.16-0.05-0.32-0.1-0.48-0.17    C339.25,149.69,339.09,149.62,338.94,149.55z M228.42,90.28c-1.65,3.49-5.83,4.99-9.32,3.33c-1.71-0.81-3.54-1.22-5.44-1.22h-0.24    c-3.4,0.05-6.62,1.44-9.02,3.91c-2.4,2.47-3.7,5.73-3.65,9.18c0.06,3.87-3.03,7.04-6.9,7.1h-0.1c-3.82,0-6.94-3.07-7-6.9    c-0.1-7.19,2.6-13.98,7.61-19.14c5.01-5.15,11.73-8.04,18.92-8.14l0.33-0.01c4.04,0,7.88,0.87,11.48,2.57    C228.58,82.61,230.07,86.79,228.42,90.28z"/>
<path class="st10" d="M235.61,277.96l-43.11-7.66c-4.73-0.84-8.64-3.81-10.72-8.15c-2.08-4.34-1.95-9.25,0.36-13.47    c2.31-4.22,6.37-6.97,11.15-7.56c4.78-0.59,9.38,1.11,12.65,4.65L235.61,277.96z"/>
<path class="st7" d="M312.35,376.81l-8.95,77.99h-95.35l-6.81-59.36c-0.44-3.84-3.92-6.59-7.75-6.16    c-0.18,0.02-0.35,0.07-0.53,0.1c-0.16,0.04-0.33,0.06-0.49,0.1s-0.32,0.1-0.48,0.15l-2.51-12.82h1.77c3.7,0,6.72-2.87,6.97-6.5    h14.94c0.02,0.29,0.05,0.58,0.11,0.87c0.09,0.44,0.22,0.88,0.4,1.3c0.17,0.43,0.39,0.83,0.64,1.21c0.25,0.39,0.55,0.74,0.87,1.07    c0.32,0.32,0.68,0.61,1.06,0.87c0.38,0.25,0.79,0.47,1.21,0.64c0.42,0.18,0.86,0.31,1.31,0.4s0.91,0.14,1.37,0.14    c0.45,0,0.91-0.05,1.37-0.14c0.44-0.09,0.88-0.22,1.31-0.4c0.42-0.17,0.82-0.39,1.2-0.64c0.39-0.26,0.75-0.55,1.07-0.87    c0.32-0.33,0.61-0.68,0.87-1.07c0.25-0.38,0.47-0.78,0.64-1.21c0.18-0.42,0.31-0.86,0.4-1.3c0.06-0.29,0.09-0.58,0.11-0.87h14.14    c0.25,3.63,3.28,6.5,6.97,6.5H312.35z"/>
<path class="st6" d="M338.01,159.78c0,0.46-0.05,0.92-0.14,1.37c-0.09,0.45-0.22,0.89-0.4,1.31c-0.18,0.42-0.39,0.83-0.64,1.21    c-0.26,0.38-0.55,0.74-0.88,1.06c-0.32,0.32-0.68,0.62-1.06,0.87c-0.38,0.25-0.78,0.47-1.21,0.65c-0.42,0.17-0.86,0.3-1.31,0.39    c-0.45,0.1-0.91,0.14-1.36,0.14c-0.46,0-0.92-0.04-1.37-0.14c-0.43-0.09-0.84-0.21-1.24-0.37c-0.02,0-0.05-0.01-0.07-0.02    c-0.14-0.06-0.27-0.12-0.4-0.19c-0.15-0.08-0.29-0.17-0.44-0.25c-0.12-0.07-0.25-0.13-0.37-0.21c-0.38-0.25-0.74-0.55-1.06-0.87    c-0.33-0.32-0.62-0.68-0.87-1.06c-0.26-0.38-0.47-0.79-0.65-1.21c-0.17-0.42-0.31-0.86-0.4-1.31c-0.09-0.45-0.13-0.91-0.13-1.37    c0-1.84,0.74-3.65,2.05-4.95c0.32-0.32,0.68-0.61,1.06-0.87c0.38-0.25,0.79-0.47,1.21-0.64c0.42-0.18,0.86-0.31,1.31-0.4    c0.9-0.18,1.83-0.18,2.73,0c0.45,0.09,0.89,0.22,1.31,0.4c0.43,0.17,0.83,0.39,1.21,0.64c0.3,0.2,0.57,0.43,0.83,0.67    c0.08,0.06,0.16,0.13,0.23,0.2c0.05,0.05,0.1,0.1,0.14,0.15c0.12,0.12,0.23,0.26,0.34,0.39    C337.44,156.61,338.01,158.18,338.01,159.78z"/>
<path class="st6" d="M340.8,60.44c-11.67-11.34-27.09-17.46-43.31-17.23c-16,0.22-30.95,6.61-42.11,17.77    c-11.46-10.84-26.59-16.8-42.58-16.58c-16.27,0.23-31.48,6.78-42.82,18.44c-11.34,11.67-17.45,27.05-17.22,43.32    c0.44,31.85,21.83,66.84,63.57,103.99c0.18,0.17,0.38,0.33,0.6,0.5c0.48,0.42,0.97,0.82,1.47,1.21l0.96,0.76    c0.72,0.57,1.47,1.16,2.31,1.76c0.77,0.54,1.55,1.04,2.28,1.51c1.02,0.66,1.96,1.24,2.86,1.75c0.73,0.42,1.5,0.83,2.34,1.25    c1.06,0.55,2.13,1.06,3.13,1.49c0.76,0.34,1.52,0.66,2.33,0.98c1.04,0.41,2.16,0.8,3.39,1.2c0.71,0.23,1.43,0.46,2.2,0.69    c1.34,0.38,2.63,0.67,3.72,0.9l0.5,0.12c0.5,0.11,1.01,0.23,1.56,0.33c0.86,0.15,1.77,0.29,2.74,0.41v46.52l-32.49-35.25    c-6.35-6.9-15.33-10.2-24.64-9.06c-9.31,1.14-17.23,6.51-21.73,14.74c-2.38,4.34-3.57,9.06-3.57,13.8c0,4.22,0.95,8.45,2.86,12.44    c4.06,8.46,11.68,14.25,20.91,15.89l58.66,10.41v33.08h-77c-3.86,0-7,3.13-7,7v35.23c0,3.86,3.14,7,7,7h19.53    c3.7,0,6.72-2.87,6.97-6.5c0.02-0.17,0.03-0.33,0.03-0.5s-0.01-0.34-0.03-0.5c-0.25-3.64-3.27-6.5-6.97-6.5h-12.53v-21.23h154    v21.23h-84.51c-3.69,0-6.72,2.86-6.97,6.5c-0.02,0.16-0.03,0.33-0.03,0.5s0.01,0.33,0.03,0.5c0.25,3.63,3.28,6.5,6.97,6.5h64.14    l-8.95,77.99h-95.35l-6.81-59.36c-0.44-3.84-3.92-6.59-7.75-6.16c-0.18,0.02-0.35,0.07-0.53,0.1c-0.16,0.04-0.33,0.06-0.49,0.1    s-0.32,0.1-0.48,0.15c-3.03,1.05-5.04,4.08-4.66,7.4l7.52,65.57c0.41,3.53,3.4,6.2,6.95,6.2h107.84c3.56,0,6.55-2.67,6.96-6.2    l9.84-85.79h13.28c3.87,0,7-3.14,7-7v-35.23c0-3.87-3.13-7-7-7h-77V294.5l58.67-10.41c9.23-1.64,16.85-7.43,20.91-15.89    c4.05-8.45,3.79-18.02-0.71-26.24c-2.25-4.11-5.35-7.51-9.06-10.02c-3.71-2.52-8.01-4.15-12.67-4.72    c-9.3-1.14-18.29,2.16-24.64,9.06l-32.5,35.25v-46.24c0.27-0.03,0.53-0.05,0.8-0.08c0.47-0.05,0.92-0.12,1.38-0.19l0.31-0.06    c1.13-0.15,2.61-0.37,4.24-0.7c0.43-0.09,0.84-0.2,1.27-0.31c0.2-0.05,0.41-0.11,0.7-0.17c1.43-0.36,2.61-0.68,3.66-1.01    c0.75-0.23,1.5-0.5,2.25-0.77c1.15-0.41,2.23-0.83,3.35-1.29c0.77-0.33,1.53-0.68,2.27-1.04c1.02-0.48,2.05-1,3.08-1.57    c0.7-0.38,1.49-0.82,2.31-1.33c1.06-0.63,2.03-1.28,2.77-1.79c0.88-0.59,1.61-1.11,2.34-1.65c0.92-0.7,1.76-1.41,2.6-2.11    l0.4-0.34c0.53-0.44,1.06-0.88,1.6-1.38c0.18-0.14,0.34-0.28,0.55-0.48c10.16-9.56,19.16-19.07,26.77-28.27    c2.44-2.96,2.05-7.33-0.87-9.8c-0.02-0.01-0.04-0.03-0.06-0.05c-0.11-0.09-0.22-0.18-0.34-0.25c-0.14-0.1-0.28-0.19-0.42-0.28    c-2.93-1.85-6.83-1.28-9.1,1.46c-7.22,8.72-15.79,17.78-25.45,26.88c-0.17,0.14-0.33,0.28-0.47,0.41c-0.38,0.35-0.77,0.67-1.17,1    l-0.49,0.41c-0.71,0.6-1.38,1.17-1.97,1.62c-0.57,0.42-1.15,0.82-1.74,1.22c-0.03,0.02-0.06,0.04-0.09,0.06    c-0.57,0.39-1.32,0.9-2.07,1.34c-0.03,0.02-0.06,0.04-0.09,0.06c-0.58,0.36-1.17,0.68-1.76,1.01c-0.77,0.42-1.55,0.81-2.3,1.17    c-0.03,0.01-0.06,0.02-0.09,0.04c-0.56,0.27-1.13,0.53-1.63,0.75c-0.86,0.35-1.73,0.69-2.67,1.03c-0.54,0.19-1.08,0.39-1.67,0.57    c-0.8,0.25-1.71,0.5-2.76,0.76c-0.31,0.07-0.62,0.15-0.93,0.23c-0.25,0.07-0.5,0.13-0.67,0.17c-0.89,0.18-1.89,0.35-3.3,0.54    c-0.23,0.03-0.46,0.07-0.69,0.11c-0.15,0.03-0.31,0.06-0.52,0.08c-1.69,0.19-3.16,0.28-4.47,0.3h-0.11    c-0.54,0.01-1.09,0.01-1.55,0c-0.89-0.02-1.86-0.08-2.95-0.17c-0.2-0.01-0.39-0.04-0.58-0.07l-0.58-0.08    c-0.05,0-0.09-0.01-0.14-0.01c-1.24-0.13-2.3-0.28-3.2-0.44c-0.31-0.05-0.6-0.12-0.9-0.19l-0.66-0.15    c-0.9-0.2-1.94-0.43-2.83-0.68c-0.58-0.17-1.14-0.36-1.74-0.55c-1-0.32-1.86-0.63-2.6-0.92c-0.59-0.23-1.17-0.47-1.81-0.76    c-0.78-0.34-1.55-0.71-2.43-1.16c-0.59-0.29-1.16-0.59-1.74-0.92c-0.68-0.39-1.39-0.83-2.23-1.38c-0.6-0.38-1.2-0.76-1.78-1.17    c-0.53-0.37-1.1-0.82-1.7-1.3l-0.98-0.77c-0.34-0.27-0.68-0.53-1-0.82c-0.04-0.03-0.07-0.06-0.11-0.09    c-0.12-0.11-0.25-0.21-0.39-0.32c-38.64-34.41-58.43-65.93-58.82-93.68c-0.17-12.53,4.54-24.38,13.27-33.36    s20.44-14.03,32.97-14.2c14.44-0.22,27.97,6.15,37.09,17.42c1.35,1.67,3.41,2.61,5.54,2.6c2.15-0.03,4.16-1.04,5.46-2.75    c8.83-11.53,22.17-18.26,36.6-18.46c12.53-0.21,24.37,4.53,33.36,13.27c8.98,8.73,14.03,20.44,14.21,32.97    c0.16,11.42-3.03,23.77-9.48,36.7c-1.72,3.46-0.32,7.66,3.15,9.39c0.01,0,0.01,0,0.02,0.01c0.15,0.07,0.31,0.14,0.46,0.2    c0.16,0.07,0.32,0.12,0.48,0.17c3.24,1.06,6.86-0.39,8.42-3.52c7.45-14.96,11.14-29.47,10.94-43.15    C359.01,86.98,352.46,71.78,340.8,60.44z M192.5,270.3c-4.73-0.84-8.64-3.81-10.72-8.15c-2.08-4.34-1.95-9.25,0.36-13.47    c2.31-4.22,6.37-6.97,11.15-7.56c4.78-0.59,9.38,1.11,12.65,4.65l29.67,32.19L192.5,270.3z M305.51,245.77    c2.84-3.08,6.7-4.76,10.8-4.76c0.61,0,1.23,0.03,1.85,0.11c4.77,0.59,8.84,3.34,11.15,7.56c1.22,2.23,1.83,4.65,1.83,7.07    c0,2.18-0.49,4.35-1.47,6.4c-2.08,4.34-5.99,7.31-10.73,8.15l-43.1,7.66L305.51,245.77z"/>
<path class="st6" d="M228.42,90.28c-1.65,3.49-5.83,4.99-9.32,3.33c-1.71-0.81-3.54-1.22-5.44-1.22h-0.24    c-3.4,0.05-6.62,1.44-9.02,3.91c-2.4,2.47-3.7,5.73-3.65,9.18c0.06,3.87-3.03,7.04-6.9,7.1h-0.1c-3.82,0-6.94-3.07-7-6.9    c-0.1-7.19,2.6-13.98,7.61-19.14c5.01-5.15,11.73-8.04,18.92-8.14l0.33-0.01c4.04,0,7.88,0.87,11.48,2.57    C228.58,82.61,230.07,86.79,228.42,90.28z"/>
<path class="st6" d="M227.13,369.81c0,0.16-0.01,0.33-0.03,0.5c-0.02,0.29-0.05,0.58-0.11,0.87c-0.09,0.44-0.22,0.88-0.4,1.3    c-0.17,0.43-0.39,0.83-0.64,1.21c-0.26,0.39-0.55,0.74-0.87,1.07c-0.32,0.32-0.68,0.61-1.07,0.87c-0.38,0.25-0.78,0.47-1.2,0.64    c-0.43,0.18-0.87,0.31-1.31,0.4c-0.46,0.09-0.92,0.14-1.37,0.14c-0.46,0-0.92-0.05-1.37-0.14s-0.89-0.22-1.31-0.4    c-0.42-0.17-0.83-0.39-1.21-0.64c-0.38-0.26-0.74-0.55-1.06-0.87c-0.32-0.33-0.62-0.68-0.87-1.07c-0.25-0.38-0.47-0.78-0.64-1.21    c-0.18-0.42-0.31-0.86-0.4-1.3c-0.06-0.29-0.09-0.58-0.11-0.87c-0.02-0.17-0.03-0.34-0.03-0.5c0-0.17,0.01-0.34,0.03-0.5    c0.02-0.29,0.05-0.58,0.11-0.87c0.09-0.45,0.22-0.89,0.4-1.31c0.17-0.42,0.39-0.83,0.64-1.21s0.55-0.74,0.87-1.06    s0.68-0.62,1.06-0.87s0.79-0.47,1.21-0.65c0.42-0.17,0.86-0.31,1.31-0.4c0.9-0.18,1.83-0.18,2.74,0c0.44,0.09,0.88,0.23,1.31,0.4    c0.42,0.18,0.82,0.4,1.2,0.65c0.39,0.25,0.75,0.55,1.07,0.87c0.32,0.32,0.61,0.68,0.87,1.06c0.25,0.38,0.47,0.79,0.64,1.21    c0.18,0.42,0.31,0.86,0.4,1.31c0.06,0.29,0.09,0.58,0.11,0.87C227.12,369.47,227.13,369.64,227.13,369.81z"/>
<path class="st4" d="M332.72,341.58v21.23h-84.51c-3.69,0-6.72,2.86-6.97,6.5c-0.02,0.16-0.03,0.33-0.03,0.5s0.01,0.33,0.03,0.5    H227.1c0.02-0.17,0.03-0.34,0.03-0.5c0-0.17-0.01-0.34-0.03-0.5c-0.02-0.29-0.05-0.58-0.11-0.87c-0.09-0.45-0.22-0.89-0.4-1.31    c-0.17-0.42-0.39-0.83-0.64-1.21c-0.26-0.38-0.55-0.74-0.87-1.06c-0.32-0.32-0.68-0.62-1.07-0.87c-0.38-0.25-0.78-0.47-1.2-0.65    c-0.43-0.17-0.87-0.31-1.31-0.4c-0.91-0.18-1.84-0.18-2.74,0c-0.45,0.09-0.89,0.23-1.31,0.4c-0.42,0.18-0.83,0.4-1.21,0.65    s-0.74,0.55-1.06,0.87s-0.62,0.68-0.87,1.06s-0.47,0.79-0.64,1.21c-0.18,0.42-0.31,0.86-0.4,1.31c-0.06,0.29-0.09,0.58-0.11,0.87    c-0.02,0.16-0.03,0.33-0.03,0.5c0,0.16,0.01,0.33,0.03,0.5h-14.94c0.02-0.17,0.03-0.33,0.03-0.5s-0.01-0.34-0.03-0.5    c-0.25-3.64-3.27-6.5-6.97-6.5h-12.53v-21.23H332.72z"/>
</g>
</g>
</svg>