<?xml version="1.0" ?>
<!-- Uploaded to: SVG Repo, www.svgrepo.com, Generator: SVG Repo Mixer Tools -->
<svg width="800px" height="800px" viewBox="0 0 512 512" version="1.1" xml:space="preserve" xmlns="http://www.w3.org/2000/svg" xmlns:xlink="http://www.w3.org/1999/xlink">
<style type="text/css">
	.st0{display:none;}
	.st1{fill:#FFE2D2;}
	.st2{fill:#FFDE83;}
	.st3{fill:#F57070;}
	.st4{fill:#DBDBEF;}
	.st5{fill:#BCE2FF;}
	.st6{fill:#48446D;}
	.st7{fill:#6E78FF;}
	.st8{fill:#FFBE83;}
	.st9{fill:#F5949E;}
	.st10{fill:#D0FF67;}
	.st11{fill:#C69C6D;}
	.st12{fill:#C5BDD3;}
	.st13{fill:#FFE2B8;}
	.st14{fill:#F54670;}
</style>
<g class="st0" id="Layer_1"/>
<g id="Layer_2">
<g>
<rect class="st2" height="89.63" width="31.73" x="57.5" y="122.22"/>
<path class="st1" d="M408.77,316.95v47.64l-48.6,39.35c-16.95,13.72-38.29,21.27-60.08,21.27h-72.18c-2.59,0-4.7-2.11-4.7-4.7    v-0.23c0-1.3,0.5-2.49,1.41-3.37c0.88-0.86,2.05-1.33,3.32-1.33c0.06,0,0.11,0,0.17,0.01c31.6,0.95,68.16-1.57,99.67-27.4    c1.62-1.33,2.56-3.31,2.56-5.41V367.3c0-3.87-3.13-7-7-7h-33.75v-4.65l85.68-38.7H408.77z"/>
<path class="st2" d="M454.64,344.91c-0.09,0.45-0.14,0.91-0.14,1.37c0,0.45,0.05,0.91,0.14,1.36c0.09,0.45,0.22,0.89,0.4,1.31    c0.17,0.43,0.39,0.83,0.64,1.21c0.26,0.39,0.55,0.74,0.87,1.07c1.18,1.18,2.79,1.9,4.45,2.02c0.17,0.02,0.33,0.03,0.5,0.03v10.89    c-0.17,0-0.33,0.01-0.5,0.03c-3.64,0.25-6.5,3.27-6.5,6.97v18.61h-31.73v-89.63h31.73v22.66c0,3.69,2.86,6.72,6.5,6.97    c0.17,0.02,0.33,0.03,0.5,0.03v9.47c-0.17,0-0.33,0.01-0.5,0.02c-0.29,0.02-0.58,0.05-0.87,0.11c-0.44,0.09-0.88,0.23-1.31,0.4    c-0.42,0.18-0.83,0.39-1.21,0.65c-0.38,0.25-0.74,0.54-1.06,0.87c-0.32,0.32-0.61,0.68-0.87,1.06c-0.25,0.38-0.47,0.79-0.64,1.21    C454.86,344.02,454.73,344.46,454.64,344.91z"/>
<path class="st6" d="M468.5,346.28c0,0.45-0.05,0.91-0.14,1.36c-0.09,0.45-0.22,0.89-0.4,1.31c-0.17,0.43-0.39,0.83-0.64,1.21    c-0.26,0.39-0.55,0.74-0.87,1.07c-0.32,0.32-0.68,0.61-1.06,0.87c-0.38,0.25-0.79,0.47-1.21,0.64c-0.43,0.18-0.87,0.31-1.31,0.4    c-0.29,0.06-0.58,0.09-0.87,0.11c-0.17,0.02-0.33,0.03-0.5,0.03s-0.33-0.01-0.5-0.03c-1.66-0.12-3.27-0.84-4.45-2.02    c-0.32-0.33-0.61-0.68-0.87-1.07c-0.25-0.38-0.47-0.78-0.64-1.21c-0.18-0.42-0.31-0.86-0.4-1.31c-0.09-0.45-0.14-0.91-0.14-1.36    c0-0.46,0.05-0.92,0.14-1.37c0.09-0.45,0.22-0.89,0.4-1.31c0.17-0.42,0.39-0.83,0.64-1.21c0.26-0.38,0.55-0.74,0.87-1.06    c0.32-0.33,0.68-0.62,1.06-0.87c0.38-0.26,0.79-0.47,1.21-0.65c0.43-0.17,0.87-0.31,1.31-0.4c0.29-0.06,0.58-0.09,0.87-0.11    c0.17-0.01,0.33-0.02,0.5-0.02s0.33,0.01,0.5,0.02c0.29,0.02,0.58,0.05,0.87,0.11c0.44,0.09,0.88,0.23,1.31,0.4    c0.42,0.18,0.83,0.39,1.21,0.65c0.38,0.25,0.74,0.54,1.06,0.87c0.32,0.32,0.61,0.68,0.87,1.06c0.25,0.38,0.47,0.79,0.64,1.21    c0.18,0.42,0.31,0.86,0.4,1.31C468.45,345.36,468.5,345.82,468.5,346.28z"/>
<path class="st6" d="M461,329.78c0.17,0.02,0.33,0.03,0.5,0.03s0.33-0.01,0.5-0.03c3.64-0.25,6.5-3.28,6.5-6.97v-29.66    c0-3.87-3.13-7-7-7h-45.73c-3.87,0-7,3.13-7,7v9.8h-35.01c-0.99,0-1.98,0.21-2.88,0.62l-10.38,4.69    c20.66-28.66,31.11-55.94,31.11-81.35c0-42.68-34.73-77.41-77.41-77.41c-21.05,0-40.79,8.41-55.32,23.33    c-6.48-6.64-14.1-12.04-22.47-15.97V144.7c0-3.87-3.13-7-7-7h-33.75v-5.1c27.4-21,59.68-23.04,87.8-22.19    c5.14,0.15,10-1.71,13.66-5.26c3.66-3.54,5.67-8.31,5.67-13.43v-0.23c0-10.31-8.39-18.7-18.7-18.7h-72.18    c-24.99,0-49.45,8.66-68.88,24.39l-28.71,23.24c-1.92,1.56-2.79,3.92-2.54,6.21c0.02,0.17,0.03,0.33,0.06,0.5    c0.03,0.17,0.08,0.33,0.12,0.5c0.24,0.93,0.68,1.83,1.32,2.63c2.44,3.01,6.84,3.47,9.85,1.04l28.7-23.24    c16.95-13.72,38.29-21.27,60.08-21.27h72.18c2.59,0,4.7,2.11,4.7,4.7v0.23c0,1.3-0.5,2.49-1.41,3.37    c-0.92,0.9-2.15,1.38-3.49,1.32c-31.6-0.94-68.16,1.57-99.67,27.4c-1.62,1.33-2.56,3.31-2.56,5.41v15.48c0,3.87,3.13,7,7,7h33.75    v4.65l-38.15,17.23l-47.53,21.47h-33.5v-79.83c0-3.87-3.13-7-7-7H50.5c-3.87,0-7,3.13-7,7v103.63c0,3.87,3.13,7,7,7h45.73    c3.87,0,7-3.13,7-7v-9.8h35.01c0.99,0,1.98-0.21,2.88-0.62l87.77-39.64c9.55,4.18,17.98,10.69,24.49,18.97    c1.33,1.69,3.35,2.67,5.5,2.67c1.07,0,2.11-0.25,3.05-0.7c0.95-0.46,1.79-1.13,2.45-1.97c12.14-15.42,30.3-24.26,49.82-24.26    c34.96,0,63.41,28.45,63.41,63.41c0,28.31-15.19,59.94-45.17,94.02l-52.73,23.82c-2.51,1.13-4.12,3.63-4.12,6.38v15.28    c-0.83,0.22-1.65,0.41-2.4,0.58c-0.29,0.07-0.58,0.14-0.88,0.21c-0.4,0.1-0.79,0.2-1.23,0.28c-1.45,0.29-2.95,0.49-4.38,0.67    c-0.31,0.04-0.62,0.08-0.93,0.13c-0.25,0.04-0.5,0.08-0.76,0.1c-4.14,0.41-8,0.42-12.29,0c-0.25-0.02-0.49-0.06-0.74-0.1    c-0.32-0.05-0.63-0.1-0.96-0.14c-1.74-0.21-3.13-0.42-4.38-0.66c-0.41-0.08-0.82-0.19-1.23-0.29c-0.28-0.07-0.57-0.13-0.87-0.2    c-1.08-0.25-2.5-0.59-3.82-0.98c-0.77-0.23-1.52-0.5-2.3-0.77c-1.39-0.47-2.51-0.88-3.55-1.31c-0.8-0.32-1.58-0.67-2.35-1.02    c-0.99-0.46-2.05-0.98-3.21-1.59c-0.79-0.42-1.64-0.87-2.44-1.35c-1.01-0.59-2.04-1.26-2.95-1.86c-0.79-0.52-1.62-1.08-2.41-1.64    c-0.9-0.66-1.84-1.43-2.77-2.2l-0.6-0.49c-0.54-0.43-1.08-0.86-1.59-1.33c-2.66-2.39-6.65-2.35-9.28-0.05    c-0.13,0.11-0.25,0.22-0.37,0.34c-0.08,0.07-0.16,0.15-0.24,0.24c-0.04,0.04-0.07,0.08-0.1,0.12c-2.47,2.89-2.2,7.22,0.63,9.77    c0.74,0.66,1.45,1.24,2.14,1.79l0.53,0.43c1.02,0.85,2.18,1.8,3.42,2.7c1.02,0.74,2.03,1.41,2.93,2c1.03,0.69,2.27,1.49,3.56,2.25    c1.05,0.62,2.06,1.16,3.02,1.67c1.4,0.74,2.68,1.37,3.91,1.93c0.84,0.38,1.85,0.83,2.89,1.25c1.27,0.53,2.64,1.04,4.29,1.6    c0.92,0.32,1.85,0.63,2.82,0.93c1.73,0.51,3.43,0.92,4.7,1.21l0.7,0.17c0.63,0.15,1.27,0.3,1.9,0.42    c1.56,0.31,3.25,0.56,5.29,0.82c0.2,0.02,0.4,0.05,0.59,0.08c0.51,0.08,1.02,0.15,1.51,0.2c2.55,0.24,5.06,0.37,7.51,0.37    c2.41,0,4.92-0.13,7.45-0.37c0.51-0.05,1.02-0.12,1.53-0.2c0.19-0.03,0.39-0.06,0.55-0.08c1.68-0.21,3.48-0.45,5.33-0.82    c0.63-0.12,1.26-0.27,1.88-0.42l0.69-0.17c1.41-0.32,3.07-0.72,4.71-1.21c0.76-0.23,1.5-0.47,2.24-0.72l0.57-0.19    c1.65-0.57,3.02-1.08,4.32-1.61c1.01-0.41,1.97-0.84,2.89-1.26c0.94-0.43,1.86-0.88,2.76-1.34h22.52v5.1    c-27.4,21-59.68,23.04-87.8,22.19c-5.15-0.16-10,1.71-13.66,5.26c-3.66,3.54-5.67,8.31-5.67,13.43v0.23    c0,10.31,8.39,18.7,18.7,18.7h72.18c24.99,0,49.45-8.66,68.88-24.39l39.8-32.22v14.18c0,3.87,3.13,7,7,7h45.73c3.87,0,7-3.13,7-7    v-25.61c0-3.7-2.86-6.72-6.5-6.97c-0.17-0.02-0.33-0.03-0.5-0.03s-0.33,0.01-0.5,0.03c-3.64,0.25-6.5,3.27-6.5,6.97v18.61h-31.73    v-89.63h31.73v22.66C454.5,326.5,457.36,329.53,461,329.78z M89.23,211.85H57.5v-89.63h31.73V211.85z M408.77,364.59l-48.6,39.35    c-16.95,13.72-38.29,21.27-60.08,21.27h-72.18c-2.59,0-4.7-2.11-4.7-4.7v-0.23c0-1.3,0.5-2.49,1.41-3.37    c0.88-0.86,2.05-1.33,3.32-1.33c0.06,0,0.11,0,0.17,0.01c31.6,0.95,68.16-1.57,99.67-27.4c1.62-1.33,2.56-3.31,2.56-5.41V367.3    c0-3.87-3.13-7-7-7h-33.75v-4.65l85.68-38.7h33.5V364.59z"/>
<path class="st6" d="M187.12,331.35c-0.1,0.14-0.19,0.29-0.3,0.42c-0.11,0.13-0.23,0.24-0.35,0.35c-0.1,0.1-0.19,0.21-0.29,0.3    c-1.34,1.19-3,1.78-4.66,1.78c-1.93,0-3.84-0.79-5.23-2.35c-33.27-37.33-50.14-72.64-50.14-104.94c0-3.59,2.7-6.54,6.18-6.94    c0.17-0.01,0.33-0.03,0.5-0.04c0.11-0.02,0.21-0.02,0.32-0.02c0.06,0,0.12,0.01,0.18,0.01c3.79,0.1,6.82,3.18,6.82,6.99    c0,28.76,15.68,60.94,46.59,95.63C188.99,325.07,189.05,328.75,187.12,331.35z"/>
<path class="st6" d="M204.17,342.96c0,1.63-0.6,3.23-1.64,4.49c-0.11,0.12-0.22,0.25-0.33,0.37c-0.02,0.03-0.05,0.06-0.08,0.09    c-0.09,0.09-0.19,0.17-0.29,0.26c-1.27,1.13-2.95,1.79-4.66,1.79c-0.46,0-0.92-0.05-1.37-0.14c-0.44-0.09-0.88-0.22-1.31-0.4    c-0.42-0.17-0.83-0.39-1.21-0.64c-0.38-0.26-0.74-0.55-1.06-0.87c-1.3-1.3-2.05-3.11-2.05-4.95c0-0.46,0.05-0.92,0.14-1.37    c0.09-0.45,0.22-0.89,0.4-1.31c0.17-0.42,0.39-0.83,0.64-1.21c0.24-0.36,0.52-0.69,0.81-1l0.06-0.06c0.1-0.1,0.2-0.2,0.31-0.28    c0.13-0.12,0.26-0.21,0.4-0.31c0.11-0.09,0.23-0.2,0.35-0.28c0.38-0.25,0.79-0.47,1.21-0.65c0.43-0.17,0.87-0.3,1.31-0.39    c2.28-0.46,4.7,0.28,6.32,1.91C203.42,339.31,204.17,341.12,204.17,342.96z"/>
<path class="st6" d="M314.2,201.92c13.78,0,24.99,11.21,24.99,24.99c0,3.87,3.13,7,7,7s7-3.13,7-7c0-21.5-17.49-38.99-38.99-38.99    c-3.87,0-7,3.13-7,7S310.33,201.92,314.2,201.92z"/>
<path class="st1" d="M288.79,91.49v0.23c0,1.3-0.5,2.49-1.41,3.37c-0.92,0.9-2.15,1.38-3.49,1.32    c-31.6-0.94-68.16,1.57-99.67,27.4c-1.62,1.33-2.56,3.31-2.56,5.41v15.48c0,3.87,3.13,7,7,7h33.75v4.65l-38.15,17.23l-47.53,21.47    h-33.5v-67.92h8.61c0.03,0.17,0.08,0.33,0.12,0.5c0.24,0.93,0.68,1.83,1.32,2.63c2.44,3.01,6.84,3.47,9.85,1.04l28.7-23.24    c16.95-13.72,38.29-21.27,60.08-21.27h72.18C286.68,86.79,288.79,88.9,288.79,91.49z"/>
<path class="st3" d="M314.2,163.5c-19.52,0-37.68,8.84-49.82,24.26c-0.66,0.84-1.5,1.51-2.45,1.97c-0.94,0.45-1.98,0.7-3.05,0.7    c-2.15,0-4.17-0.98-5.5-2.67c-6.51-8.28-14.94-14.79-24.49-18.97l-87.77,39.64c-0.9,0.41-1.89,0.62-2.88,0.62h-5.41v10.88    c0.11-0.02,0.21-0.02,0.32-0.02c0.06,0,0.12,0.01,0.18,0.01c3.79,0.1,6.82,3.18,6.82,6.99c0,28.76,15.68,60.94,46.59,95.63    c2.25,2.53,2.31,6.21,0.38,8.81c-0.1,0.14-0.19,0.29-0.3,0.42l5.71,5.96c0.13-0.12,0.26-0.21,0.4-0.31    c0.11-0.09,0.23-0.2,0.35-0.28c0.38-0.25,0.79-0.47,1.21-0.65c0.43-0.17,0.87-0.3,1.31-0.39c2.28-0.46,4.7,0.28,6.32,1.91    c1.3,1.3,2.05,3.11,2.05,4.95c0,1.63-0.6,3.23-1.64,4.49c-0.11,0.12-0.22,0.25-0.33,0.37l4.7,4.92c0.12-0.12,0.24-0.23,0.37-0.34    c2.63-2.3,6.62-2.34,9.28,0.05c0.51,0.47,1.05,0.9,1.59,1.33l0.6,0.49c0.93,0.77,1.87,1.54,2.77,2.2    c0.79,0.56,1.62,1.12,2.41,1.64c0.91,0.6,1.94,1.27,2.95,1.86c0.8,0.48,1.65,0.93,2.44,1.35c1.16,0.61,2.22,1.13,3.21,1.59    c0.77,0.35,1.55,0.7,2.35,1.02c1.04,0.43,2.16,0.84,3.55,1.31c0.78,0.27,1.53,0.54,2.3,0.77c1.32,0.39,2.74,0.73,3.82,0.98    c0.3,0.07,0.59,0.13,0.87,0.2c0.41,0.1,0.82,0.21,1.23,0.29c1.25,0.24,2.64,0.45,4.38,0.66c0.33,0.04,0.64,0.09,0.96,0.14    c0.25,0.04,0.49,0.08,0.74,0.1c4.29,0.42,8.15,0.41,12.29,0c0.26-0.02,0.51-0.06,0.76-0.1c0.31-0.05,0.62-0.09,0.93-0.13    c1.43-0.18,2.93-0.38,4.38-0.67c0.44-0.08,0.83-0.18,1.23-0.28c0.3-0.07,0.59-0.14,0.88-0.21c0.75-0.17,1.57-0.36,2.4-0.58v-15.28    c0-2.75,1.61-5.25,4.12-6.38l52.73-23.82c29.98-34.08,45.17-65.71,45.17-94.02C377.61,191.95,349.16,163.5,314.2,163.5z     M346.19,233.91c-3.87,0-7-3.13-7-7c0-13.78-11.21-24.99-24.99-24.99c-3.87,0-7-3.13-7-7c0-3.86,3.13-7,7-7    c21.5,0,38.99,17.49,38.99,38.99C353.19,230.78,350.06,233.91,346.19,233.91z"/>
</g>
</g>
</svg>