<?xml version="1.0" ?>
<!-- Uploaded to: SVG Repo, www.svgrepo.com, Generator: SVG Repo Mixer Tools -->
<svg width="800px" height="800px" viewBox="0 0 512 512" version="1.1" xml:space="preserve" xmlns="http://www.w3.org/2000/svg" xmlns:xlink="http://www.w3.org/1999/xlink">
<style type="text/css">
	.st0{display:none;}
	.st1{fill:#FFE2D2;}
	.st2{fill:#FFDE83;}
	.st3{fill:#F57070;}
	.st4{fill:#DBDBEF;}
	.st5{fill:#BCE2FF;}
	.st6{fill:#48446D;}
	.st7{fill:#6E78FF;}
	.st8{fill:#FFBE83;}
	.st9{fill:#F5949E;}
	.st10{fill:#D0FF67;}
	.st11{fill:#C69C6D;}
	.st12{fill:#C5BDD3;}
	.st13{fill:#FFE2B8;}
	.st14{fill:#F54670;}
</style>
<g class="st0" id="Layer_1"/>
<g id="Layer_2">
<g>
<path class="st4" d="M331.66,142.67c-20.27-20.13-47.11-31.18-75.66-31.18h-0.78c-56.9,0.4-104.7,46.97-106.54,103.8    c-1.04,32.19,12.2,62.85,36.33,84.13c13.53,11.94,23.07,27.6,27.58,45.29c0.95,3.75-1.31,7.56-5.06,8.51    c-0.57,0.15-1.13,0.19-1.69,0.2c-0.17,0-0.33,0.01-0.5,0c-0.17-0.01-0.33-0.05-0.5-0.07v7.05h27.66v-49.79    c-0.5-0.37-1-0.75-1.48-1.14l-0.34-0.26c-0.36-0.28-0.72-0.57-1.07-0.87c-0.15-0.12-0.3-0.24-0.44-0.37    c-28.09-25.01-42.49-48.71-42.8-70.45c-0.33-23.49,18.51-42.87,42-43.2c10.45-0.12,20.33,3.47,28.12,10.09    c7.6-6.84,17.39-10.73,27.82-10.88h0.61c23.22,0,42.26,18.72,42.59,42c0.06,4.17-0.4,8.48-1.37,12.82    c-0.84,3.77-4.58,6.15-8.36,5.31c-0.14-0.03-0.26-0.08-0.39-0.12c-0.53,1.7-1.16,3.55-1.87,5.49c2.15,1.2,3.61,3.49,3.61,6.13    c0,3.86-3.13,7-7,7c-0.86,0-1.68-0.16-2.44-0.45c-1.15,1.99-2.4,3.88-3.76,5.59c2.24,2.51,2.41,6.34,0.24,9.04    c-5.42,6.77-11.97,13.77-19.46,20.82c-0.13,0.13-0.28,0.26-0.43,0.38c-0.34,0.32-0.69,0.61-1.05,0.91l-0.29,0.24    c-0.64,0.54-1.23,1.04-1.85,1.5c-0.51,0.38-1.02,0.74-1.54,1.09c-0.06,0.04-0.11,0.07-0.16,0.11v49.01h15.46    c1.82-23.41,12.73-45.46,30.55-61.34c22.86-20.37,35.98-49.6,35.98-80.19C363.38,190.04,352.11,162.98,331.66,142.67z     M245.91,144.31c-15.98,2.16-30.62,9.34-42.35,20.76c-3.6,3.51-6.86,7.37-9.67,11.46c-1.36,1.98-3.55,3.04-5.78,3.04    c-1.37,0-2.75-0.4-3.96-1.24c-3.18-2.19-3.99-6.54-1.8-9.73c3.34-4.85,7.19-9.41,11.44-13.56c13.9-13.53,31.27-22.04,50.24-24.61    c3.84-0.51,7.36,2.17,7.88,6C252.43,140.26,249.74,143.79,245.91,144.31z M278.89,139.33c-0.56,3.43-3.53,5.86-6.9,5.86    c-0.37,0-0.76-0.03-1.15-0.09l-0.33-0.06c-3.82-0.63-6.39-4.24-5.76-8.05c0.64-3.82,4.23-6.4,8.05-5.76l0.33,0.05    C276.94,131.91,279.52,135.52,278.89,139.33z"/>
<path class="st3" d="M280.47,436.06c-3.05,10.63-12.87,18.44-24.47,18.44s-21.42-7.81-24.47-18.44H280.47z"/>
<path class="st2" d="M254.13,391.23h55.55V374.4H204.21v47.66h105.47v-16.83h-55.55c-3.86,0-7-3.14-7-7    C247.13,394.36,250.27,391.23,254.13,391.23z M227.52,405.23h-10.5c-3.86,0-7-3.14-7-7c0-3.87,3.14-7,7-7h10.5c3.87,0,7,3.13,7,7    C234.52,402.09,231.39,405.23,227.52,405.23z"/>
<path class="st6" d="M341.52,132.74c-23.12-22.96-53.8-35.49-86.4-35.25c-31.38,0.22-61.12,12.49-83.75,34.53    c-22.64,22.05-35.66,51.46-36.68,82.82c-1.18,36.37,13.78,71.03,41.06,95.08c11.41,10.07,19.46,23.29,23.27,38.25    c0.72,2.83,3.08,4.8,5.82,5.18c0.17,0.02,0.33,0.06,0.5,0.07c0.17,0.01,0.33,0,0.5,0c0.56-0.01,1.12-0.05,1.69-0.2    c3.75-0.95,6.01-4.76,5.06-8.51c-4.51-17.69-14.05-33.35-27.58-45.29c-24.13-21.28-37.37-51.94-36.33-84.13    c1.84-56.83,49.64-103.4,106.54-103.8H256c28.55,0,55.39,11.05,75.66,31.18c20.45,20.31,31.72,47.37,31.72,76.2    c0,30.59-13.12,59.82-35.98,80.19c-17.82,15.88-28.73,37.93-30.55,61.34h-15.46v-49.01c0.05-0.04,0.1-0.07,0.16-0.11    c0.52-0.35,1.03-0.71,1.54-1.09c0.62-0.46,1.21-0.96,1.85-1.5l0.29-0.24c0.36-0.3,0.71-0.59,1.05-0.91    c0.15-0.12,0.3-0.25,0.43-0.38c7.49-7.05,14.04-14.05,19.46-20.82c2.17-2.7,2-6.53-0.24-9.04c-0.11-0.12-0.22-0.24-0.34-0.36    c-0.12-0.11-0.24-0.22-0.37-0.33c-0.05-0.03-0.08-0.07-0.13-0.11c-3.02-2.42-7.43-1.93-9.84,1.08    c-4.99,6.23-11.05,12.71-18.01,19.28c-0.12,0.1-0.24,0.2-0.34,0.3c-0.21,0.18-0.42,0.35-0.63,0.53l-0.4,0.34    c-0.4,0.34-0.79,0.67-1.2,0.98c-0.32,0.24-0.66,0.47-1,0.7c0,0-0.08,0.06-0.09,0.06c-0.43,0.29-0.86,0.58-1.29,0.84    c-0.36,0.22-0.73,0.43-1.1,0.63c-0.47,0.26-0.95,0.5-1.42,0.73c-0.36,0.17-0.71,0.33-1.08,0.49c-0.53,0.22-1.05,0.42-1.57,0.6    l-0.19,0.07c-0.28,0.1-0.55,0.2-0.84,0.29c-0.57,0.18-1.2,0.34-1.73,0.47l-0.46,0.12c-0.16,0.04-0.32,0.08-0.49,0.12    c-0.52,0.11-1.04,0.19-1.56,0.26c-3.25,0.47-5.62,3.11-5.93,6.22c-0.02,0.17-0.06,0.33-0.06,0.5c-0.01,0.16-0.01,0.33,0,0.5    c0.01,0.23,0.03,0.47,0.06,0.71c0.51,3.49,3.5,6,6.92,6c0.34,0,0.67-0.02,1.01-0.07c0.94-0.14,1.72-0.27,2.43-0.42    c0.37-0.08,0.74-0.17,1.1-0.26l0.01-0.01v42.84H246.5v-53.56c0-0.09-0.01-0.16-0.02-0.24c0-0.09,0-0.17-0.01-0.25    c-0.01-0.16-0.03-0.32-0.05-0.48c-0.01-0.05-0.01-0.1-0.02-0.16c-0.03-0.18-0.07-0.36-0.11-0.54c-0.01-0.03-0.02-0.06-0.02-0.09    c-0.05-0.19-0.11-0.38-0.18-0.57c0-0.01-0.01-0.03-0.02-0.05c-0.07-0.19-0.14-0.38-0.23-0.57l-0.03-0.06    c-0.09-0.18-0.18-0.35-0.28-0.52c-0.01-0.03-0.03-0.06-0.05-0.09c-0.1-0.16-0.2-0.32-0.31-0.47c-0.03-0.04-0.05-0.07-0.08-0.11    c-0.11-0.15-0.22-0.28-0.34-0.42c-0.03-0.04-0.07-0.07-0.1-0.11c-0.12-0.13-0.25-0.26-0.38-0.39c-0.04-0.03-0.07-0.06-0.1-0.09    c-0.15-0.13-0.3-0.25-0.45-0.37c-0.03-0.02-0.05-0.03-0.07-0.05c-0.18-0.13-0.36-0.25-0.54-0.36c-0.01-0.01-0.02-0.01-0.03-0.02    c-0.33-0.2-0.67-0.41-1.01-0.63l-0.11-0.07c-0.33-0.21-0.66-0.42-0.97-0.64c-0.43-0.3-0.83-0.63-1.28-0.99l-0.37-0.29    c-0.21-0.17-0.43-0.33-0.62-0.51c-0.12-0.1-0.24-0.19-0.36-0.29c-24.96-22.25-37.74-42.46-37.99-60.08    c-0.22-15.78,12.43-28.79,28.2-29.01c8.81-0.13,17.05,3.75,22.62,10.63c1.35,1.67,3.41,2.66,5.54,2.59    c2.15-0.03,4.16-1.04,5.46-2.75c5.38-7.03,13.51-11.13,22.32-11.26c15.78-0.19,28.78,12.43,29,28.2c0.05,3.08-0.3,6.3-1.03,9.57    c-0.73,3.3,1,6.58,3.97,7.91c0.16,0.06,0.31,0.13,0.47,0.19c0.15,0.06,0.31,0.1,0.47,0.14c0.13,0.04,0.25,0.09,0.39,0.12    c3.78,0.84,7.52-1.54,8.36-5.31c0.97-4.34,1.43-8.65,1.37-12.82c-0.33-23.28-19.37-42-42.59-42h-0.61    c-10.43,0.15-20.22,4.04-27.82,10.88c-7.79-6.62-17.67-10.21-28.12-10.09c-23.49,0.33-42.33,19.71-42,43.2    c0.31,21.74,14.71,45.44,42.8,70.45c0.14,0.13,0.29,0.25,0.44,0.37c0.35,0.3,0.71,0.59,1.07,0.87l0.34,0.26    c0.48,0.39,0.98,0.77,1.48,1.14v49.79h-35.29c-3.87,0-7,3.13-7,7v61.66c0,3.86,3.13,7,7,7h19.98    c3.31,18.42,19.45,32.44,38.81,32.44s35.5-14.02,38.81-32.44h21.87c3.86,0,7-3.14,7-7V367.4c0-3.87-3.14-7-7-7h-5.76    c1.79-19.42,10.95-37.66,25.79-50.88c25.85-23.03,40.67-56.07,40.67-90.65C377.38,186.28,364.64,155.7,341.52,132.74z M256,454.5    c-11.6,0-21.42-7.81-24.47-18.44h48.94C277.42,446.69,267.6,454.5,256,454.5z M309.68,391.23h-55.55c-3.86,0-7,3.13-7,7    c0,3.86,3.14,7,7,7h55.55v16.83H204.21V374.4h105.47V391.23z"/>
<path class="st6" d="M278.89,139.33c-0.56,3.43-3.53,5.86-6.9,5.86c-0.37,0-0.76-0.03-1.15-0.09l-0.33-0.06    c-3.82-0.63-6.39-4.24-5.76-8.05c0.64-3.82,4.23-6.4,8.05-5.76l0.33,0.05C276.94,131.91,279.52,135.52,278.89,139.33z"/>
<path class="st6" d="M245.91,144.31c-15.98,2.16-30.62,9.34-42.35,20.76c-3.6,3.51-6.86,7.37-9.67,11.46    c-1.36,1.98-3.55,3.04-5.78,3.04c-1.37,0-2.75-0.4-3.96-1.24c-3.18-2.19-3.99-6.54-1.8-9.73c3.34-4.85,7.19-9.41,11.44-13.56    c13.9-13.53,31.27-22.04,50.24-24.61c3.84-0.51,7.36,2.17,7.88,6C252.43,140.26,249.74,143.79,245.91,144.31z"/>
<path class="st6" d="M217.02,405.23h10.5c3.87,0,7-3.13,7-7s-3.13-7-7-7h-10.5c-3.87,0-7,3.13-7,7S213.16,405.23,217.02,405.23z"/>
<path class="st6" d="M319.13,265.16c0,3.86-3.13,7-7,7c-0.86,0-1.68-0.16-2.44-0.45c-0.31-0.11-0.62-0.24-0.9-0.4    c-2.18-1.19-3.67-3.5-3.67-6.15c0-3.87,3.13-7,7-7h0.01c0.87,0,1.71,0.17,2.48,0.46c0.31,0.12,0.62,0.25,0.91,0.41    C317.67,260.23,319.13,262.52,319.13,265.16z"/>
<path class="st6" d="M263,69.77V50.5c0-3.87-3.13-7-7-7s-7,3.13-7,7v19.27c0,3.86,3.13,7,7,7S263,73.63,263,69.77z"/>
<path class="st6" d="M372.39,95.81l-13.62,13.63c-2.73,2.73-2.73,7.16,0,9.9c1.37,1.36,3.16,2.05,4.95,2.05s3.58-0.69,4.95-2.05    l13.62-13.63c2.74-2.73,2.74-7.16,0-9.9C379.56,93.08,375.13,93.08,372.39,95.81z"/>
<path class="st6" d="M427.61,215.11h-19.27c-3.87,0-7,3.13-7,7c0,3.86,3.13,7,7,7h19.27c3.86,0,7-3.14,7-7    C434.61,218.24,431.47,215.11,427.61,215.11z"/>
<path class="st6" d="M368.67,324.88c-2.73-2.74-7.17-2.74-9.9,0c-2.73,2.73-2.73,7.16,0,9.9l13.62,13.62    c1.37,1.37,3.16,2.05,4.95,2.05c1.8,0,3.59-0.68,4.95-2.05c2.74-2.73,2.74-7.17,0-9.9L368.67,324.88z"/>
<path class="st6" d="M143.33,324.88l-13.62,13.62c-2.74,2.73-2.74,7.17,0,9.9c1.36,1.37,3.15,2.05,4.95,2.05    c1.79,0,3.58-0.68,4.95-2.05l13.62-13.62c2.73-2.74,2.73-7.17,0-9.9C150.5,322.14,146.06,322.14,143.33,324.88z"/>
<path class="st6" d="M103.66,215.11H84.39c-3.86,0-7,3.13-7,7c0,3.86,3.14,7,7,7h19.27c3.87,0,7-3.14,7-7    C110.66,218.24,107.53,215.11,103.66,215.11z"/>
<path class="st6" d="M143.33,119.34c1.37,1.36,3.16,2.05,4.95,2.05s3.58-0.69,4.95-2.05c2.73-2.74,2.73-7.17,0-9.9l-13.62-13.63    c-2.74-2.73-7.17-2.73-9.9,0c-2.74,2.74-2.74,7.17,0,9.9L143.33,119.34z"/>
<path class="st4" d="M267.39,317.56v42.84H246.5v-51.57c2.73,0.74,5.91,1.39,9.42,1.78c-0.02,0.17-0.06,0.33-0.06,0.5    c-0.01,0.16-0.01,0.33,0,0.5c0.01,0.23,0.03,0.47,0.06,0.71c0.51,3.49,3.5,6,6.92,6c0.34,0,0.67-0.02,1.01-0.07    c0.94-0.14,1.72-0.27,2.43-0.42c0.37-0.08,0.74-0.17,1.1-0.26L267.39,317.56z"/>
<path class="st3" d="M317.39,253.54c-0.53,1.7-1.16,3.55-1.87,5.49c-0.29-0.16-0.6-0.29-0.91-0.41c-0.77-0.29-1.61-0.46-2.48-0.46    h-0.01c-3.87,0-7,3.13-7,7c0,2.65,1.49,4.96,3.67,6.15c0.28,0.16,0.59,0.29,0.9,0.4c-1.15,1.99-2.4,3.88-3.76,5.59    c-0.11-0.12-0.22-0.24-0.34-0.36c-0.12-0.11-0.24-0.22-0.37-0.33c-0.05-0.03-0.08-0.07-0.13-0.11c-3.02-2.42-7.43-1.93-9.84,1.08    c-4.99,6.23-11.05,12.71-18.01,19.28c-0.12,0.1-0.24,0.2-0.34,0.3c-0.21,0.18-0.42,0.35-0.63,0.53l-0.4,0.34    c-0.4,0.34-0.79,0.67-1.2,0.98c-0.32,0.24-0.66,0.47-1,0.7c0,0-0.08,0.06-0.09,0.06c-0.43,0.29-0.86,0.58-1.29,0.84    c-0.36,0.22-0.73,0.43-1.1,0.63c-0.47,0.26-0.95,0.5-1.42,0.73c-0.36,0.17-0.71,0.33-1.08,0.49c-0.53,0.22-1.05,0.42-1.57,0.6    l-0.19,0.07c-0.28,0.1-0.55,0.2-0.84,0.29c-0.57,0.18-1.2,0.34-1.73,0.47l-0.46,0.12c-0.16,0.04-0.32,0.08-0.49,0.12    c-0.52,0.11-1.04,0.19-1.56,0.26c-3.25,0.47-5.62,3.11-5.93,6.22c-3.51-0.39-6.69-1.04-9.42-1.78v-1.99    c0-0.09-0.01-0.16-0.02-0.24c0-0.09,0-0.17-0.01-0.25c-0.01-0.16-0.03-0.32-0.05-0.48c-0.01-0.05-0.01-0.1-0.02-0.16    c-0.03-0.18-0.07-0.36-0.11-0.54c-0.01-0.03-0.02-0.06-0.02-0.09c-0.05-0.19-0.11-0.38-0.18-0.57c0-0.01-0.01-0.03-0.02-0.05    c-0.07-0.19-0.14-0.38-0.23-0.57l-0.03-0.06c-0.09-0.18-0.18-0.35-0.28-0.52c-0.01-0.03-0.03-0.06-0.05-0.09    c-0.1-0.16-0.2-0.32-0.31-0.47c-0.03-0.04-0.05-0.07-0.08-0.11c-0.11-0.15-0.22-0.28-0.34-0.42c-0.03-0.04-0.07-0.07-0.1-0.11    c-0.12-0.13-0.25-0.26-0.38-0.39c-0.04-0.03-0.07-0.06-0.1-0.09c-0.15-0.13-0.3-0.25-0.45-0.37c-0.03-0.02-0.05-0.03-0.07-0.05    c-0.18-0.13-0.36-0.25-0.54-0.36c-0.01-0.01-0.02-0.01-0.03-0.02c-0.33-0.2-0.67-0.41-1.01-0.63l-0.11-0.07    c-0.33-0.21-0.66-0.42-0.97-0.64c-0.43-0.3-0.83-0.63-1.28-0.99l-0.37-0.29c-0.21-0.17-0.43-0.33-0.62-0.51    c-0.12-0.1-0.24-0.19-0.36-0.29c-24.96-22.25-37.74-42.46-37.99-60.08c-0.22-15.78,12.43-28.79,28.2-29.01    c8.81-0.13,17.05,3.75,22.62,10.63c1.35,1.67,3.41,2.66,5.54,2.59c2.15-0.03,4.16-1.04,5.46-2.75    c5.38-7.03,13.51-11.13,22.32-11.26c15.78-0.19,28.78,12.43,29,28.2c0.05,3.08-0.3,6.3-1.03,9.57c-0.73,3.3,1,6.58,3.97,7.91    c0.16,0.06,0.31,0.13,0.47,0.19C317.07,253.46,317.23,253.5,317.39,253.54z"/>
</g>
</g>
</svg>